<svg xmlns="http://www.w3.org/2000/svg" width="46" height="56"><g fill="none"><path fill="#1A9BDB" d="m25.795 33.018-2.976 5.543-.743 1.433-.41.76-1.607 2.982-.637 1.169-5.608 10.507c-.286.532-.748.532-1.023 0l-2.14-4.146a2.006 2.006 0 0 0-1.596-.994l-5.01-.093c-.586 0-.837-.439-.521-.953l5.794-9.478.421-.684 2.017-3.298.34-.584 4.496-7.35 6.361 3.567 2.842 1.62Z"/><path fill="#1A9BDB" d="m23.187 33.018 2.97 5.543.755 1.433.403.76 1.608 3.005.643 1.17 5.607 10.483c.281.532.743.532 1.018 0l2.14-4.146c.335-.577.936-.95 1.602-.994l5.005-.093c.584 0 .842-.439.526-.953l-5.8-9.478-.415-.684-2.018-3.298-.339-.584-4.496-7.327-6.367 3.567-2.842 1.596Z"/><path fill="#FF971A" d="M42.663 28.118a5.765 5.765 0 0 0-.082 2.094c.158.966.2 1.947.123 2.923a2.643 2.643 0 0 1-.327.947c-.97 1.614-3.807 1.754-5.151 3.058a7.192 7.192 0 0 0-1.357 2.339c-.48 1.1-.965 2.193-1.87 2.701-1.62.895-4.146-.38-5.988.076a8.572 8.572 0 0 0-2.614 1.55c-.865.631-1.754 1.17-2.707 1.17-.953 0-1.795-.586-2.625-1.258-.83-.672-1.696-1.415-2.59-1.666-1.825-.527-4.391.666-5.976-.293-.883-.526-1.327-1.62-1.754-2.719a7.431 7.431 0 0 0-1.292-2.426c-1.304-1.298-4.134-1.573-5.046-3.216a2.339 2.339 0 0 1-.263-.748c-.193-1 .093-2.205.228-3.35a5.315 5.315 0 0 0-.041-1.883c-.369-1.491-2.07-2.883-2.585-4.42-.1-.29-.15-.595-.146-.901.035-1.918 2.42-3.461 2.924-5.221.035-.123.064-.258.087-.386a12.57 12.57 0 0 0-.128-2.924 4.315 4.315 0 0 1 .333-2.654c.965-1.608 3.8-1.754 5.145-3.052 1.345-1.298 1.58-4.117 3.228-5.046 1.649-.93 4.14.38 5.981-.076C20.012 2.28 21.573-.035 23.491 0c1.918.035 3.461 2.421 5.221 2.924 1.76.503 4.391-.667 5.976.286 1.585.953 1.754 3.807 3.052 5.146s4.093 1.596 5.034 3.233c.343.77.435 1.63.263 2.456-.134 1.134-.415 2.339-.222 3.35l.035.181c.445 1.754 2.772 3.397 2.737 5.321a2.537 2.537 0 0 1-.152.801c-.527 1.561-2.34 2.912-2.772 4.42Z"/><path fill="#FFF" d="M41.786 22.786v-.339a1.17 1.17 0 0 0-.04-.135c-.416-1.292-1.848-2.455-2.158-3.7-.38-1.533.684-3.632-.065-4.977-.748-1.344-3.11-1.572-4.186-2.69-1.076-1.116-1.263-3.472-2.578-4.28-1.316-.806-3.456.194-4.97-.239C26.274 5.994 25.04 4.023 23.444 4c-1.596-.023-2.923 1.901-4.42 2.27-1.497.368-3.63-.679-4.976.064-1.345.742-1.573 3.11-2.69 4.186-1.116 1.076-3.496 1.205-4.326 2.538-.144.25-.24.526-.28.812v.813c0 .222 0 .45.052.678a.24.24 0 0 0 0 .065v.17c0 .233.053.473.076.707 0 .146 0 .292.03.438.002.055.002.11 0 .164.02.372-.018.745-.112 1.105l-.035.117-.094.234c-.017.04-.037.079-.059.117l-.058.116c-.035.07-.076.135-.117.205-.363.585-.877 1.17-1.298 1.754-.035.047-.07.088-.1.135a4.31 4.31 0 0 0-.467.824.778.778 0 0 0-.053.123l-.035.093a.439.439 0 0 0 0 .094.386.386 0 0 0 0 .076.088.088 0 0 0 0 .04.823.823 0 0 0 0 .112v.14c-.003.055-.003.11 0 .164 0 1.59 1.912 2.924 2.275 4.42.014.048.026.097.035.147a.585.585 0 0 1 0 .146c.002.05.002.101 0 .152.002.05.002.101 0 .152v.69c0 .087 0 .18-.03.269-.029.087 0 .17 0 .251a.199.199 0 0 0 0 .059c-.046.304-.093.584-.134.923v.152c0 .135-.03.263-.035.398-.018.23-.018.46 0 .69.022.317.11.625.257.906.072.127.156.247.252.357.205.229.444.426.707.585.07.046.146.087.222.128.112.064.227.123.345.176.094.052.199.093.298.14l.585.275.456.204c.152.07.292.14.433.217.318.164.61.375.865.625 1.076 1.117 1.17 3.473 2.532 4.28 1.362.807 3.455-.193 4.976.24.456.154.882.388 1.257.69l.146.111.193.146.392.31.263.205c.213.17.436.327.666.473a2.8 2.8 0 0 0 1.421.497c1.596 0 2.924-1.906 4.426-2.274a5.063 5.063 0 0 1 1.877 0l.357.053.234.035c.728.17 1.487.17 2.216 0 .1-.034.195-.077.286-.129l.129-.076c.08-.053.156-.112.228-.175 1.058-.936 1.321-2.959 2.339-3.935.736-.708 2-1.006 3.01-1.503l.147-.07c.271-.14.525-.313.754-.515a2.07 2.07 0 0 0 .369-.45c0-.053.064-.105.087-.158l.07-.164c.134-.4.19-.823.164-1.245a1.427 1.427 0 0 1 0-.158v-.327a.871.871 0 0 0 0-.123v-.041c.003-.055.003-.11 0-.164a.778.778 0 0 1 0-.163.649.649 0 0 1 0-.1c0-.134-.03-.269-.047-.397v-.07a14.58 14.58 0 0 1-.052-.685v-.35a.865.865 0 0 1 0-.123 1.596 1.596 0 0 1 0-.24v-.117a.754.754 0 0 0 0-.111.497.497 0 0 1 0-.1.83.83 0 0 1 0-.128c.144-.437.363-.844.649-1.205l.193-.263.105-.128.31-.392.21-.269a7.25 7.25 0 0 0 .474-.667c.082-.134.158-.269.228-.409a2.415 2.415 0 0 0 .263-1.012 1.754 1.754 0 0 0-.099-.233Zm-3.888.181c-.15 8.174-6.896 14.679-15.07 14.531-8.173-.148-14.68-6.893-14.534-15.066.146-8.174 6.889-14.682 15.063-14.538 8.177.147 14.688 6.895 14.541 15.073Z"/><path fill="#FF971A" d="M33.408 33.41c-5.816 5.625-15.074 5.532-20.775-.21l20.938-20.944.199.198c5.682 5.889 5.52 15.267-.362 20.956Z"/><path fill="#FFF" d="m23.772 16.886.964 2.965c.08.256.316.433.585.438h3.128a.637.637 0 0 1 .38 1.17L26.327 23.3a.637.637 0 0 0-.228.707l.965 2.988a.637.637 0 0 1-1 .719l-2.526-1.83a.631.631 0 0 0-.749 0l-2.52 1.83a.637.637 0 0 1-.958-.713l.97-2.994a.643.643 0 0 0-.228-.707l-2.543-1.86a.637.637 0 0 1 .38-1.17h3.128a.626.626 0 0 0 .585-.438l.964-2.964a.637.637 0 0 1 1.205.017Z"/></g></svg>