<svg xmlns="http://www.w3.org/2000/svg" width="46" height="57"><g fill="none"><path fill="#FF971A" d="M32.683 23.62V3.119h9.208a3.717 3.717 0 0 1 3.71 3.709A17.334 17.334 0 0 1 34.114 23.11l-1.432.51ZM34.83 5.258v15.231A15.187 15.187 0 0 0 43.453 6.82a1.57 1.57 0 0 0-1.562-1.57l-7.06.007ZM13.546 23.62l-1.46-.51A17.32 17.32 0 0 1 .6 6.827a3.717 3.717 0 0 1 3.71-3.71h9.236v20.504ZM4.339 5.258a1.57 1.57 0 0 0-1.563 1.57 15.187 15.187 0 0 0 8.623 13.661V5.258H4.34Z"/><path fill="#1A9BDB" d="M9.172 52.975h27.885a1.54 1.54 0 0 1 1.548 1.548 1.548 1.548 0 0 1-1.548 1.54H9.172a1.548 1.548 0 1 1 0-3.088Zm4.52-12.392 18.867.021c1.21 0 2.19.981 2.19 2.19v.906h-.015l.001 9.271H11.501V42.69h.003l.003-.073a2.19 2.19 0 0 1 2.185-2.034Z"/><path fill="#FF971A" d="M38.182.423A1.46 1.46 0 0 0 37.174 0H9.055a1.46 1.46 0 0 0-1.46 1.46v2.753c0 14.267 5.958 26.03 13.632 27.68a8.857 8.857 0 0 0 3.717 0 9.405 9.405 0 0 0 2.073-.73l.417-.211c6.469-3.388 11.171-14.114 11.171-26.768V1.43a1.46 1.46 0 0 0-.423-1.008Z"/><path fill="#FF971A" d="M21.256 31.601h3.717v8.981h-3.717z"/><path fill="#FF971A" d="M27.047 31.156a4.118 4.118 0 0 0-2.074 3.585v-2.877a9.404 9.404 0 0 0 2.074-.708Zm2.059 9.427h-4.133v-4.14a4.133 4.133 0 0 0 4.133 4.14Zm-9.923-9.427a4.118 4.118 0 0 1 2.066 3.585v-2.877a9.405 9.405 0 0 1-2.066-.708Zm-2.059 9.427h4.125v-4.14a4.14 4.14 0 0 1-4.125 4.14Z"/><path fill="#FF971A" d="M18.934 36.326a1.395 1.395 0 0 1 1.395-1.402H25.9a1.395 1.395 0 0 1 1.395 1.402 1.395 1.395 0 0 1-1.395 1.387h-5.57c-.768 0-1.391-.62-1.396-1.387Z"/><path fill="#F9624E" d="M27.23 0v12.741l2.044-2.044 2.044 2.044V0z"/><path fill="#F4F4F4" d="M14.911 44.05h16.414v5.454H14.911z"/></g></svg>