<svg xmlns="http://www.w3.org/2000/svg" width="37" height="67"><g fill="none"><path fill="#00CCA5" d="M31.495 0H4.713A4.626 4.626 0 0 0 .1 4.619v56.93a4.626 4.626 0 0 0 4.612 4.612h26.782a4.619 4.619 0 0 0 4.604-4.612V4.62A4.626 4.626 0 0 0 31.495 0Z"/><path fill="#FFF" d="M2.593 10.004H33.37v46.153H2.593zm12.546 52.584a1.232 1.232 0 0 1-1.239-1.24v-.372a1.232 1.232 0 0 1 1.239-1.239h5.729a1.239 1.239 0 0 1 1.232 1.24v.372a1.24 1.24 0 0 1-1.232 1.239h-5.729Zm4.011-57.59a1.167 1.167 0 1 1-1.147-1.16 1.153 1.153 0 0 1 1.146 1.16Z"/><path fill="#FF971A" d="M2.595 17.402V9.797H33.37v7.605z"/><path fill="#FFF" d="M6.973 14.63a1.03 1.03 0 1 1 0-2.061 1.03 1.03 0 0 1 0 2.062Zm3.304 0a1.03 1.03 0 1 1 0-2.061 1.03 1.03 0 0 1 0 2.062Zm3.303 0a1.03 1.03 0 1 1 0-2.061 1.03 1.03 0 0 1 0 2.062Z"/><path fill="#1A9BDB" d="M28.58 31.483H7.62c-.425 0-.77-.56-.77-1.25s.345-1.25.77-1.25h20.96c.425 0 .77.56.77 1.25s-.345 1.25-.77 1.25Zm0 17.293H7.62c-.425 0-.77-.56-.77-1.25s.345-1.25.77-1.25h20.96c.425 0 .77.56.77 1.25s-.345 1.25-.77 1.25Zm0-11.529H7.62c-.425 0-.77-.56-.77-1.25s.345-1.25.77-1.25h20.96c.425 0 .77.56.77 1.25s-.345 1.25-.77 1.25Zm0-11.529H7.62c-.425 0-.77-.56-.77-1.25s.345-1.25.77-1.25h20.96c.425 0 .77.56.77 1.25 0 .691-.345 1.25-.77 1.25Zm0 17.293H7.62c-.425 0-.77-.56-.77-1.25s.345-1.25.77-1.25h20.96c.425 0 .77.56.77 1.25s-.345 1.25-.77 1.25Z"/></g></svg>